<svg width="130" height="24" viewBox="0 0 130 24" fill="none" xmlns="http://www.w3.org/2000/svg">
<path d="M27.965 4.77884H31.685L35.6135 14.3649H35.7811L39.7095 4.77884H43.4295V19.0497H40.5026V9.76198H40.384L36.6927 18.9802H34.6978L31.0064 9.72519H30.8879V19.0497H27.9609V4.77884H27.965Z" fill="white"/>
<path d="M50.7019 19.2582C49.6186 19.2582 48.6825 19.0293 47.8935 18.5674C47.1087 18.1013 46.5036 17.4555 46.0744 16.6297C45.6452 15.7999 45.4326 14.8351 45.4326 13.7396C45.4326 12.644 45.6452 11.667 46.0744 10.8412C46.5036 10.0114 47.1087 9.36552 47.8935 8.90359C48.6825 8.43757 49.6186 8.20865 50.7019 8.20865C51.7852 8.20865 52.7172 8.44166 53.5021 8.90359C54.2911 9.36143 54.9002 10.0073 55.3294 10.8412C55.7586 11.667 55.9712 12.6358 55.9712 13.7396C55.9712 14.8433 55.7586 15.7999 55.3294 16.6297C54.9002 17.4555 54.2952 18.1013 53.5021 18.5674C52.7172 19.0252 51.7852 19.2582 50.7019 19.2582ZM50.7142 16.9567C51.2047 16.9567 51.6176 16.8177 51.9487 16.5398C52.2798 16.2577 52.5251 15.8694 52.6927 15.3829C52.8644 14.8964 52.9502 14.3405 52.9502 13.7191C52.9502 13.0978 52.8644 12.5418 52.6927 12.0554C52.5251 11.5689 52.2757 11.1805 51.9487 10.8985C51.6176 10.6164 51.2088 10.4733 50.7142 10.4733C50.2195 10.4733 49.7985 10.6164 49.4592 10.8985C49.124 11.1805 48.8705 11.5689 48.6988 12.0554C48.5312 12.5418 48.4495 13.0978 48.4495 13.7191C48.4495 14.3405 48.5312 14.8964 48.6988 15.3829C48.8705 15.8694 49.124 16.2577 49.4592 16.5398C49.7985 16.8177 50.2154 16.9567 50.7142 16.9567Z" fill="white"/>
<path d="M61.8413 19.2214C61.0278 19.2214 60.292 19.0129 59.6339 18.5959C58.9798 18.1749 58.4566 17.5535 58.0723 16.7359C57.6921 15.9143 57.5 14.9045 57.5 13.7109C57.5 12.5172 57.6962 11.4666 58.0927 10.6531C58.4893 9.83556 59.0125 9.22646 59.6666 8.82176C60.3247 8.41297 61.0483 8.20858 61.8332 8.20858C62.4341 8.20858 62.9328 8.31078 63.3293 8.51517C63.734 8.71548 64.057 8.96484 64.3063 9.26734C64.5557 9.56576 64.7478 9.856 64.8786 10.1462H64.9686V4.77884H67.9282V19.0497H65.0013V17.3368H64.8746C64.7356 17.6353 64.5393 17.9296 64.2818 18.2198C64.0324 18.506 63.7054 18.7472 63.3007 18.9393C62.9001 19.1314 62.4136 19.2254 61.8373 19.2254L61.8413 19.2214ZM62.7856 16.8626C63.2639 16.8626 63.6686 16.7318 63.9997 16.4743C64.3349 16.2086 64.5884 15.8407 64.7683 15.3665C64.9481 14.8923 65.0381 14.3363 65.0381 13.7027C65.0381 13.0691 64.9481 12.5131 64.7724 12.043C64.5966 11.5729 64.339 11.2132 64.0038 10.9556C63.6686 10.6981 63.2639 10.5714 62.7856 10.5714C62.3074 10.5714 61.8863 10.7022 61.5511 10.9679C61.2159 11.2336 60.9624 11.6015 60.7908 12.0675C60.6191 12.5377 60.5332 13.0813 60.5332 13.6986C60.5332 14.3159 60.6191 14.8718 60.7908 15.3501C60.9665 15.8243 61.22 16.1963 61.5511 16.4661C61.8863 16.7318 62.2951 16.8626 62.7856 16.8626Z" fill="white"/>
<path d="M74.3179 19.2214C73.5044 19.2214 72.7686 19.0129 72.1104 18.5959C71.4564 18.1749 70.9331 17.5535 70.5489 16.7359C70.1687 15.9143 69.9766 14.9045 69.9766 13.7109C69.9766 12.5172 70.1728 11.4666 70.5693 10.6531C70.9658 9.83556 71.4891 9.22646 72.1431 8.82176C72.8013 8.41297 73.5249 8.20858 74.3097 8.20858C74.9106 8.20858 75.4094 8.31078 75.8059 8.51517C76.2106 8.71548 76.5335 8.96484 76.7829 9.26734C77.0323 9.56576 77.2244 9.856 77.3552 10.1462H77.4451V4.77884H80.4048V19.0497H77.4778V17.3368H77.3511C77.2121 17.6353 77.0159 17.9296 76.7584 18.2198C76.509 18.506 76.182 18.7472 75.7773 18.9393C75.3767 19.1314 74.8902 19.2254 74.3138 19.2254L74.3179 19.2214ZM75.2581 16.8626C75.7364 16.8626 76.1411 16.7318 76.4681 16.4743C76.8033 16.2086 77.0568 15.8407 77.2367 15.3665C77.4165 14.8923 77.5105 14.3363 77.5105 13.7027C77.5105 13.0691 77.4206 12.5131 77.2448 12.043C77.0691 11.5729 76.8115 11.2132 76.4763 10.9556C76.1411 10.7022 75.7364 10.5714 75.2581 10.5714C74.7798 10.5714 74.3588 10.7022 74.0236 10.9679C73.6884 11.2336 73.4349 11.6015 73.2632 12.0675C73.0915 12.5377 73.0057 13.0813 73.0057 13.6986C73.0057 14.3159 73.0915 14.8718 73.2632 15.3501C73.439 15.8243 73.6925 16.1963 74.0236 16.4661C74.3588 16.7318 74.7676 16.8626 75.2581 16.8626Z" fill="white"/>
<path d="M85.8169 4.77884V19.0497H82.8491V4.77884H85.8169Z" fill="white"/>
<path d="M93.0729 19.2582C91.9732 19.2582 91.0248 19.0334 90.2318 18.5878C89.4428 18.1381 88.8337 17.5004 88.4045 16.6788C87.9753 15.853 87.7627 14.876 87.7627 13.7436C87.7627 12.6113 87.9753 11.6752 88.4045 10.8453C88.8337 10.0155 89.4346 9.36552 90.2113 8.8995C90.9921 8.43348 91.9078 8.20456 92.9543 8.20456C93.6615 8.20456 94.3197 8.31902 94.9247 8.54794C95.5379 8.77278 96.0734 9.10798 96.5271 9.55765C96.985 10.0073 97.3447 10.5755 97.5982 11.2582C97.8516 11.9368 97.9824 12.7299 97.9824 13.6415V14.4549H88.9441V12.6154H95.1863C95.1863 12.1862 95.0923 11.8101 94.9083 11.479C94.7244 11.1478 94.4627 10.8903 94.1357 10.7063C93.8128 10.5142 93.4326 10.4202 92.9993 10.4202C92.566 10.4202 92.149 10.5265 91.8015 10.735C91.4581 10.9394 91.1883 11.2173 90.9921 11.5648C90.7959 11.9082 90.6978 12.2924 90.6937 12.7135V14.4631C90.6937 14.9945 90.7918 15.4483 90.988 15.8366C91.1883 16.2209 91.4704 16.5193 91.8301 16.7278C92.194 16.9363 92.6232 17.0426 93.1178 17.0426C93.4489 17.0426 93.7474 16.9976 94.0213 16.9036C94.2951 16.8096 94.5282 16.6706 94.7244 16.4866C94.9206 16.3027 95.0678 16.0737 95.1699 15.8039L97.917 15.9838C97.778 16.642 97.4919 17.2184 97.0586 17.713C96.6293 18.1995 96.0775 18.5796 95.3989 18.8576C94.7244 19.1274 93.9477 19.2623 93.0647 19.2623L93.0729 19.2582Z" fill="white"/>
<path d="M109.711 19.2459C108.673 19.2459 107.745 19.066 106.931 18.7104C106.122 18.3466 105.484 17.8519 105.014 17.2183C104.548 16.5806 104.311 15.8489 104.294 15.0149H107.332C107.352 15.3624 107.463 15.669 107.675 15.9347C107.888 16.1963 108.174 16.3966 108.525 16.5397C108.877 16.6828 109.273 16.7564 109.715 16.7564C110.156 16.7564 110.582 16.6746 110.933 16.5111C111.285 16.3476 111.563 16.1228 111.763 15.8366C111.963 15.5505 112.061 15.2152 112.061 14.8392C112.061 14.4631 111.955 14.1197 111.743 13.8295C111.534 13.531 111.232 13.298 110.835 13.1345C110.443 12.9669 109.981 12.8851 109.441 12.8851H108.108V10.6695H109.441C109.895 10.6695 110.3 10.5918 110.647 10.4324C110.999 10.273 111.272 10.0563 111.469 9.77835C111.665 9.49629 111.763 9.16517 111.763 8.78908C111.763 8.413 111.677 8.11867 111.505 7.84887C111.338 7.57498 111.101 7.36241 110.794 7.20707C110.492 7.05173 110.14 6.97815 109.735 6.97815C109.331 6.97815 108.951 7.05173 108.611 7.20298C108.272 7.34606 108.002 7.55454 107.798 7.82434C107.593 8.09414 107.483 8.40891 107.471 8.77273H104.581C104.593 7.95107 104.83 7.22751 105.284 6.59797C105.737 5.97253 106.351 5.48198 107.123 5.12633C107.9 4.7666 108.775 4.59082 109.752 4.59082C110.729 4.59082 111.599 4.77069 112.335 5.12633C113.075 5.48607 113.648 5.96844 114.056 6.57753C114.469 7.18254 114.674 7.86113 114.669 8.6133C114.674 9.41044 114.424 10.0809 113.925 10.6123C113.427 11.1478 112.781 11.4871 111.98 11.6302V11.7405C113.03 11.8754 113.827 12.2393 114.375 12.8361C114.927 13.4247 115.201 14.1647 115.197 15.0517C115.201 15.8652 114.968 16.5888 114.494 17.2183C114.024 17.8519 113.378 18.3466 112.548 18.7104C111.722 19.0742 110.774 19.2541 109.703 19.2541L109.711 19.2459Z" fill="white"/>
<path d="M122.51 19.0497H117.449V4.77884H122.551C123.986 4.77884 125.22 5.06499 126.259 5.6373C127.293 6.20551 128.09 7.019 128.65 8.08185C129.214 9.14471 129.492 10.4201 129.492 11.8999C129.492 13.3798 129.21 14.6634 128.65 15.7344C128.094 16.8013 127.293 17.623 126.246 18.1953C125.204 18.7676 123.961 19.0538 122.51 19.0538V19.0497ZM120.47 16.462H122.387C123.279 16.462 124.031 16.3026 124.64 15.9878C125.253 15.669 125.711 15.1743 126.022 14.5039C126.332 13.8294 126.488 12.9628 126.488 11.8959C126.488 10.8289 126.332 9.97864 126.022 9.31231C125.715 8.6419 125.257 8.15135 124.648 7.83658C124.039 7.52181 123.291 7.36239 122.396 7.36239H120.474V16.462H120.47Z" fill="white"/>
<path d="M11.021 24L0 18.5263V5.47777L11.0046 0L22.0092 5.46551L22.0215 18.5141L11.021 24ZM20.7256 17.7087L20.7092 6.27082L11.0046 1.44711L1.29586 6.279V17.721L11.0087 22.557L20.7256 17.7087Z" fill="white"/>
<path d="M10.8494 21.5104L10.7227 10.6612L19.9041 6.8063L19.6997 17.2141L10.8494 21.5104Z" fill="white"/>
</svg>
